<svg height='100px' width='100px'  fill="#000000" xmlns="http://www.w3.org/2000/svg" xmlns:xlink="http://www.w3.org/1999/xlink" version="1.1" x="0px" y="0px" viewBox="0 0 409.513 409.525" enable-background="new 0 0 409.513 409.525" xml:space="preserve"><g><path d="M204.763,173.357c-17.363,0-31.405,14.042-31.405,31.382c0,17.364,14.042,31.428,31.405,31.428   c17.341,0,31.405-14.064,31.405-31.428C236.168,187.399,222.104,173.357,204.763,173.357z"></path><path d="M368.38,189.833c-7.122-78.724-69.977-141.591-148.7-148.713V0h-29.847v41.12C111.109,48.242,48.255,111.109,41.12,189.833   H0v29.847h41.12c7.135,78.736,69.989,141.578,148.713,148.713v41.133h29.847v-41.133c78.724-7.135,141.578-69.977,148.7-148.713   h41.133v-29.847H368.38z M338.394,219.68c-6.906,62.258-56.456,111.82-118.714,118.727v-53.803h-29.847v53.803   C127.575,331.5,78.013,281.938,71.106,219.68h53.803v-29.847H71.106c6.906-62.258,56.469-111.82,118.727-118.727v53.803h29.847   V71.106c62.258,6.906,111.808,56.469,118.714,118.727h-53.79v29.847H338.394z"></path></g></svg>